<svg width="16" height="12" viewBox="0 0 16 12" fill="none" xmlns="http://www.w3.org/2000/svg">
<path d="M13.661 0.265515H1.93911C1.52661 0.265515 1.17713 0.408744 0.890671 0.695203C0.604212 0.981661 0.460983 1.32541 0.460983 1.72645V10.5265C0.460983 10.9275 0.604212 11.2741 0.890671 11.5663C1.17713 11.8585 1.52661 12.0046 1.93911 12.0046H13.661C14.0735 12.0046 14.423 11.8585 14.7094 11.5663C14.9959 11.2741 15.1391 10.9275 15.1391 10.5265V1.72645C15.1391 1.32541 14.9959 0.981661 14.7094 0.695203C14.423 0.408744 14.0735 0.265515 13.661 0.265515ZM13.661 1.72645V2.10458L7.80005 6.67645L1.93911 2.10458V1.72645H13.661ZM1.93911 10.5265V3.96083L7.35317 8.17177C7.41046 8.2176 7.47921 8.25484 7.55942 8.28348C7.63963 8.31213 7.71984 8.32645 7.80005 8.32645C7.88025 8.32645 7.96046 8.31213 8.04067 8.28348C8.12088 8.25484 8.18963 8.2176 8.24692 8.17177L13.661 3.96083V10.5265H1.93911Z" fill="#9397AD"/>
</svg>
