<svg width="29" height="29" viewBox="0 0 29 29" fill="none" xmlns="http://www.w3.org/2000/svg">
<path d="M14.745 28.0499C14.577 28.0499 14.41 28.0119 14.256 27.9349C14.128 27.8709 11.087 26.3289 7.90399 22.8699C6.05169 20.8619 4.51608 18.5834 3.34999 16.1129C1.90599 13.0449 1.04799 9.68593 0.801993 6.12993C0.781993 5.83993 0.877993 5.55393 1.06899 5.33493C1.25999 5.11593 1.53099 4.98193 1.82099 4.96293C3.82399 4.83093 5.39299 3.15393 5.39299 1.14393C5.39399 0.539927 5.88299 0.0499268 6.48699 0.0499268H23.112C23.716 0.0499268 24.206 0.539927 24.206 1.14393C24.206 3.15293 25.774 4.82993 27.776 4.96293C28.071 4.98193 28.345 5.11993 28.536 5.34493C28.727 5.56993 28.82 5.86293 28.792 6.15693C28.418 10.1059 27.328 13.7989 25.551 17.1339C25.267 17.6669 24.605 17.8689 24.072 17.5849C23.539 17.3009 23.337 16.6389 23.621 16.1049C25.109 13.3109 26.076 10.2389 26.502 6.95993C24.262 6.36993 22.542 4.51693 22.119 2.23593H7.48099C7.05599 4.52893 5.32299 6.38693 3.06999 6.96893C3.64499 12.4869 5.78999 17.3109 9.45299 21.3219C11.646 23.7229 13.796 25.1389 14.739 25.6989C15.771 25.0709 18.266 23.3849 20.695 20.4599C21.081 19.9949 21.77 19.9319 22.235 20.3179C22.7 20.7039 22.764 21.3939 22.377 21.8579C18.92 26.0199 15.391 27.8539 15.242 27.9299C15.0879 28.0089 14.9182 28.0501 14.745 28.0499ZM15.591 22.1309C15.955 21.6489 15.86 20.9629 15.378 20.5989C14.432 19.8839 13.537 19.0739 12.718 18.1909C10.335 15.6219 8.71899 12.6049 7.90699 9.21193C8.34499 8.87393 8.75599 8.50093 9.13599 8.09593C9.76599 7.42493 10.304 6.67693 10.735 5.86993C11.02 5.33693 10.818 4.67493 10.286 4.38993C9.75399 4.10493 9.09099 4.30693 8.80599 4.83893C8.46372 5.47791 8.03873 6.069 7.54199 6.59693C7.10299 7.06393 6.61099 7.47893 6.07999 7.82993C5.70699 8.07593 5.52199 8.52393 5.61099 8.96193C6.44399 13.0339 8.29499 16.6389 11.114 19.6779C12.0158 20.651 13.0012 21.5431 14.059 22.3439C14.1734 22.431 14.3039 22.4946 14.4429 22.531C14.582 22.5675 14.7269 22.576 14.8693 22.5562C15.0117 22.5364 15.1488 22.4887 15.2726 22.4157C15.3965 22.3427 15.5047 22.2459 15.591 22.1309Z" fill="url(#paint0_linear_20005129_739)"/>
<defs>
<linearGradient id="paint0_linear_20005129_739" x1="0.798993" y1="14.1169" x2="28.798" y2="14.1169" gradientUnits="userSpaceOnUse">
<stop stop-color="#6366F1"/>
<stop offset="0.5" stop-color="#8B5CF6"/>
<stop offset="1" stop-color="#D946EF"/>
</linearGradient>
</defs>
</svg>
