<svg width="28" height="22" viewBox="0 0 28 22" fill="none" xmlns="http://www.w3.org/2000/svg">
<path d="M22.531 13.4629C23.135 13.4629 23.625 13.9529 23.625 14.5569V15.8699C23.625 16.4739 23.135 16.9639 22.531 16.9639H20.015C19.411 16.9639 18.921 16.4739 18.921 15.8699V14.5579C18.921 13.9539 19.411 13.4639 20.015 13.4639L22.531 13.4629ZM25.812 11.4939V8.21292H2.188V16.9559C2.18853 17.5361 2.41922 18.0923 2.82944 18.5025C3.23965 18.9127 3.79587 19.1434 4.376 19.1439H23.626C24.2061 19.1434 24.7624 18.9127 25.1726 18.5025C25.5828 18.0923 25.8135 17.5361 25.814 16.9559C25.814 16.3519 26.304 15.8619 26.908 15.8619C27.512 15.8619 28 16.3519 28 16.9559C27.9987 18.1158 27.5373 19.2279 26.7171 20.0481C25.8969 20.8682 24.7849 21.3296 23.625 21.3309H4.375C3.21508 21.3296 2.10305 20.8682 1.28287 20.0481C0.462685 19.2279 0.00132335 18.1158 0 16.9559L0 5.14392C0.00132335 3.984 0.462685 2.87198 1.28287 2.05179C2.10305 1.23161 3.21508 0.770244 4.375 0.768921H23.625C24.7849 0.770244 25.8969 1.23161 26.7171 2.05179C27.5373 2.87198 27.9987 3.984 28 5.14392V11.4939C28 12.0979 27.51 12.5879 26.906 12.5879C26.302 12.5879 25.812 12.0979 25.812 11.4939ZM25.812 6.02492V5.14292C25.8112 4.56314 25.5805 4.00733 25.1706 3.59736C24.7606 3.18739 24.2048 2.95671 23.625 2.95592H4.375C3.79504 2.95672 3.23908 3.18752 2.82908 3.59771C2.41908 4.0079 2.18853 4.56396 2.188 5.14392V6.02592H25.813L25.812 6.02492ZM5.469 10.3999C4.865 10.3999 4.375 10.8899 4.375 11.4939C4.375 12.0979 4.865 12.5879 5.469 12.5879H14.492C15.096 12.5879 15.586 12.0979 15.586 11.4939C15.586 10.8899 15.096 10.3999 14.492 10.3999H5.469Z" fill="url(#paint0_linear_20005129_728)"/>
<defs>
<linearGradient id="paint0_linear_20005129_728" x1="0" y1="11.0989" x2="28" y2="11.0989" gradientUnits="userSpaceOnUse">
<stop stop-color="#6366F1"/>
<stop offset="0.5" stop-color="#8B5CF6"/>
<stop offset="1" stop-color="#D946EF"/>
</linearGradient>
</defs>
</svg>
